HIERARCHY
ROOT hip
{
	OFFSET 0.000000 0.000000 0.000000 
	CHANNELS 6 Xposition Yposition Zposition Xrotation Zrotation Yrotation
	JOINT abdomen
	{
		OFFSET 0.000000 3.402643 0.000000 
		CHANNELS 3 Xrotation Zrotation Yrotation
		JOINT chest
		{
			OFFSET 0.000000 8.438565 -0.680529 
			CHANNELS 3 Xrotation Zrotation Yrotation
			JOINT neck
			{
				OFFSET 0.000000 10.207942 -0.272212 
				CHANNELS 3 Xrotation Zrotation Yrotation
				JOINT head
				{
					OFFSET 0.000000 3.130431 0.000000 
					CHANNELS 3 Xrotation Zrotation Yrotation
					End Site
					{
						OFFSET 0.000000 3.130435 0.000000 
					}
				}
			}
			JOINT lCollar
			{
				OFFSET 3.470700 6.669187 -0.816635 
				CHANNELS 3 Yrotation Zrotation Xrotation
				JOINT lShldr
				{
					OFFSET 3.198488 0.000000 0.000000 
					CHANNELS 3 Zrotation Yrotation Xrotation
					JOINT lForeArm
					{
						OFFSET 10.139888 0.000000 0.000000 
						CHANNELS 3 Yrotation Zrotation Xrotation
						JOINT lHand
						{
							OFFSET 8.370511 0.000000 0.000000 
							CHANNELS 3 Zrotation Yrotation Xrotation
							End Site
							{
								OFFSET 4.083176 0.000000 0.000000 
							}
						}
					}
				}
			}
			JOINT rCollar
			{
				OFFSET -3.470700 6.669187 -0.816635 
				CHANNELS 3 Yrotation Zrotation Xrotation
				JOINT rShldr
				{
					OFFSET -3.198488 0.000000 0.000000 
					CHANNELS 3 Zrotation Yrotation Xrotation
					JOINT rForeArm
					{
						OFFSET -10.139888 0.000000 0.000000 
						CHANNELS 3 Yrotation Zrotation Xrotation
						JOINT rHand
						{
							OFFSET -8.370511 0.000000 0.000000 
							CHANNELS 3 Zrotation Yrotation Xrotation
							End Site
							{
								OFFSET -4.083176 0.000000 0.000000 
							}
						}
					}
				}
			}
		}
	}
	JOINT lThigh
	{
		OFFSET 5.308129 -1.633274 1.361059 
		CHANNELS 3 Xrotation Zrotation Yrotation
		JOINT lShin
		{
			OFFSET -2.041588 -20.007561 0.000000 
			CHANNELS 3 Xrotation Zrotation Yrotation
			JOINT lFoot
			{
				OFFSET 0.000000 -19.190928 -1.224953 
				CHANNELS 3 Xrotation Yrotation Zrotation
				End Site
				{
					OFFSET 0.000000 -2.449906 4.627600 
				}
			}
		}
	}
	JOINT rThigh
	{
		OFFSET -5.308129 -1.633274 1.361059 
		CHANNELS 3 Xrotation Zrotation Yrotation
		JOINT rShin
		{
			OFFSET 2.041588 -20.007561 0.000000 
			CHANNELS 3 Xrotation Zrotation Yrotation
			JOINT rFoot
			{
				OFFSET 0.000000 -19.190928 -1.224953 
				CHANNELS 3 Xrotation Yrotation Zrotation
				End Site
				{
					OFFSET 0.000000 -2.449906 4.627600 
				}
			}
		}
	}
}
MOTION
Frames: 16
Frame Time: 0.011111
-27.261791 50.444462 -19.684113 3.819066 -1.101066 17.025938 0.000000 0.000000 0.000000 -4.993477 2.062461 2.632451 10.745450 0.955385 -0.953402 -4.241665 -2.570822 -0.693457 -3.901175 -14.439820 -0.871551 -68.467941 -18.774054 42.013515 -6.146321 -6.395758 -0.098136 7.430758 -1.697216 4.512426 -9.094957 11.413119 0.611062 64.507767 -1.085377 50.767376 14.740815 2.871237 -0.061296 -2.840801 6.375824 -9.610555 2.541763 2.005963 -3.022454 2.661361 -4.457115 -5.382644 -10.707054 15.293304 6.259432 -2.779577 -2.876845 -1.820816 14.679578 4.196460 -1.985545 -12.797215 -17.044443 -5.957154 
-27.234554 50.443844 -19.668413 3.819041 -1.081578 17.271385 0.000000 0.000000 0.000000 -4.993266 1.994362 2.550503 10.735647 0.934772 -0.966891 -4.133285 -2.486189 -0.717631 -4.003568 -14.528634 -0.862701 -68.326103 -19.238514 41.935699 -6.821453 -6.261414 -0.108601 7.695395 -1.832103 4.369672 -9.231591 11.326406 0.614436 64.801826 -1.490525 50.839226 14.088004 3.118715 -0.068820 -2.840739 6.346528 -10.069544 2.604756 1.990414 -3.165147 2.535146 -4.468307 -5.353521 -10.612810 15.172151 6.226365 -2.808981 -2.935434 -1.883329 14.856404 4.229055 -2.056176 -12.872884 -17.147453 -5.905497 
-27.203405 50.443344 -19.651621 3.819004 -1.052346 17.497948 0.000000 0.000000 0.000000 -4.993063 1.926262 2.458790 10.725793 0.906023 -0.972536 -4.015173 -2.401565 -0.732131 -4.095815 -14.603193 -0.921683 -68.194870 -19.650612 41.888531 -7.574139 -6.016933 -0.137001 7.950121 -1.937693 4.178966 -9.368483 11.252498 0.599682 65.090279 -1.882591 50.924683 13.377276 3.381097 -0.092447 -2.634506 6.259043 -10.282080 2.698689 1.958586 -3.320516 2.362619 -4.492443 -5.320674 -10.500582 15.058446 6.207334 -2.808777 -3.003488 -1.984096 15.026798 4.247205 -2.119360 -12.935414 -17.198706 -5.833520 
-27.169014 50.443035 -19.633362 3.809202 -1.023126 17.705156 0.000000 0.000000 0.000000 -4.983096 1.858189 2.386924 10.715968 0.886867 -0.976354 -3.887502 -2.336009 -0.752224 -4.188292 -14.691491 -0.920676 -68.045906 -20.100357 41.798317 -8.240151 -5.938557 -0.166712 8.322356 -2.071615 4.010690 -9.495362 11.175660 0.601979 65.386101 -2.243596 51.013344 12.588208 3.686846 -0.096901 -2.251642 6.122960 -10.288943 2.837993 1.920672 -3.479282 2.147147 -4.489347 -5.255497 -10.363633 14.952703 6.144239 -2.810519 -3.083557 -2.075722 15.194789 4.277357 -2.210311 -12.997882 -17.231112 -5.773388 
-27.132311 50.442917 -19.613583 3.799400 -0.993905 17.902590 0.000000 0.000000 0.000000 -4.982880 1.780360 2.315578 10.696324 0.848552 -0.983971 -3.769715 -2.279830 -0.759781 -4.290952 -14.779665 -0.924899 -67.889778 -20.548143 41.723377 -8.973284 -5.772977 -0.186029 8.684688 -2.176179 3.823480 -9.622497 11.098882 0.663342 65.662659 -2.529068 51.093681 11.731743 4.121408 -0.096206 -1.731521 5.947801 -10.082652 2.994736 1.882470 -3.648946 1.904777 -4.501788 -5.179074 -10.247828 14.859368 6.112025 -2.811792 -3.163202 -2.167296 15.343147 4.303869 -2.292535 -13.058110 -17.291151 -5.687451 
-27.094355 50.442947 -19.592512 3.779822 -0.954950 18.081289 0.000000 0.000000 0.000000 -4.982699 1.712259 2.243385 10.686479 0.819796 -0.989581 -3.671738 -2.252051 -0.770274 -4.383615 -14.865864 -0.953662 -67.752365 -20.967354 41.673119 -9.744924 -5.567313 -0.206909 9.066308 -2.241383 3.625386 -9.738686 11.002871 0.659876 65.957024 -2.839011 51.235352 10.912804 4.364797 -0.097357 -0.976213 5.704072 -9.754123 3.158233 1.842578 -3.829005 1.648749 -4.518924 -5.070999 -10.097981 14.761187 6.052043 -2.800412 -3.268456 -2.239559 15.524684 4.354651 -2.350898 -13.118864 -17.335598 -5.601227 
-27.056105 50.443001 -19.570593 3.770024 -0.925727 18.259165 0.000000 0.000000 0.000000 -4.972780 1.653911 2.180392 10.666896 0.800667 -0.993539 -3.583702 -2.243255 -0.785553 -4.496566 -14.953890 -0.960996 -67.630936 -21.395531 41.629089 -10.487477 -5.421398 -0.221428 9.496923 -2.315768 3.453755 -9.854834 10.908562 0.646396 66.237061 -3.140690 51.398888 10.065408 4.716219 -0.099160 -0.142878 5.430407 -9.285249 3.339333 1.806012 -3.970847 1.376556 -4.528764 -5.020718 -9.944326 14.672363 5.973340 -2.787466 -3.332739 -2.329695 15.681407 4.383998 -2.403418 -13.185962 -17.402168 -5.517979 
-27.018391 50.442871 -19.548437 3.760217 -0.886759 18.418140 0.000000 0.000000 0.000000 -4.972660 1.605266 2.116262 10.647339 0.780074 -1.007139 -3.525147 -2.253296 -0.795564 -4.609632 -15.038154 -1.017359 -67.519096 -21.776556 41.610256 -11.287439 -5.164433 -0.243727 9.897833 -2.341413 3.274103 -9.970604 10.803074 0.638666 66.499954 -3.427593 51.593964 9.227339 5.089036 -0.084634 0.768371 5.146138 -8.753154 3.497540 1.763594 -4.121402 1.122255 -4.558662 -4.942416 -9.825138 14.598768 5.930364 -2.789290 -3.412897 -2.391941 15.857237 4.416451 -2.444215 -13.258353 -17.487968 -5.444257 
-26.981857 50.442261 -19.526711 3.760188 -0.857525 18.576317 0.000000 0.000000 0.000000 -4.982312 1.556599 2.051866 10.627859 0.777214 -1.026778 -3.496153 -2.291739 -0.807681 -4.722572 -15.117189 -1.012324 -67.407471 -22.179518 41.560089 -12.029346 -5.019105 -0.249228 10.348004 -2.405477 3.130690 -10.076389 10.696086 0.640180 66.746727 -3.700963 51.791126 8.389238 5.479910 -0.072639 1.708450 4.851175 -8.160727 3.656082 1.745489 -4.230861 0.876509 -4.572862 -4.913694 -9.693142 14.532710 5.855311 -2.801613 -3.504194 -2.494365 16.052998 4.442974 -2.425662 -13.327974 -17.583033 -5.354047 
-26.946918 50.440853 -19.505976 3.760169 -0.838036 18.724085 0.000000 0.000000 0.000000 -4.982221 1.517684 1.977131 10.608402 0.783953 -1.044618 -3.486876 -2.349116 -0.825107 -4.845723 -15.195323 -1.022413 -67.318703 -22.581127 41.520508 -12.818686 -4.774443 -0.251231 10.749272 -2.460070 2.980392 -10.181810 10.579517 0.639600 66.995491 -3.958066 52.018288 7.599508 5.850331 -0.059050 2.647988 4.565069 -7.548003 3.804655 1.726238 -4.310375 0.664433 -4.617747 -4.907076 -9.614768 14.445313 5.844102 -2.841032 -3.573153 -2.596825 16.240849 4.459950 -2.398407 -13.409914 -17.680958 -5.269839 
-26.913754 50.438385 -19.486523 3.760150 -0.818547 18.871853 0.000000 0.000000 0.000000 -4.982176 1.498227 1.910467 10.579233 0.809923 -1.059044 -3.507194 -2.434879 -0.825416 -4.958626 -15.259856 -1.075555 -67.266411 -22.925484 41.516209 -13.665513 -4.416515 -0.262141 11.062315 -2.486131 2.825474 -10.287200 10.464705 0.628970 67.231583 -4.211841 52.257774 6.838512 6.220995 -0.037601 3.557595 4.278190 -6.957397 3.933360 1.707507 -4.349346 0.439337 -4.634962 -4.927653 -9.490020 14.370995 5.777961 -2.875885 -3.635622 -2.678873 16.445896 4.489261 -2.378552 -13.483202 -17.784897 -5.184052 
-26.882263 50.434650 -19.468363 3.760141 -0.808802 19.009214 0.000000 0.000000 0.000000 -4.972342 1.469062 1.835135 10.540298 0.835931 -1.073675 -3.537317 -2.520537 -0.835004 -5.071607 -15.328404 -1.082862 -67.191246 -23.301996 41.444553 -14.435104 -4.213473 -0.248362 11.434653 -2.570047 2.706229 -10.372993 10.349406 0.673830 67.444458 -4.403650 52.474861 6.067981 6.679173 -0.014735 4.369036 4.039818 -6.343286 4.047103 1.697062 -4.406196 0.253764 -4.666298 -4.912718 -9.417058 14.291133 5.772621 -2.919071 -3.690172 -2.771267 16.654247 4.509878 -2.388942 -13.563758 -17.868452 -5.100620 
-26.852200 50.429626 -19.451300 3.760132 -0.799058 19.136806 0.000000 0.000000 0.000000 -4.952761 1.449648 1.768962 10.501420 0.881150 -1.084783 -3.577433 -2.625170 -0.830180 -5.174543 -15.397167 -1.085272 -67.124924 -23.680048 41.374851 -15.281934 -3.918463 -0.236873 11.728639 -2.635169 2.542273 -10.458772 10.237485 0.697384 67.668716 -4.602759 52.703640 5.394023 6.998574 -0.005289 5.150659 3.791186 -5.799304 4.152433 1.686303 -4.423280 0.087572 -4.690013 -4.957880 -9.361832 14.197262 5.772058 -2.984191 -3.744250 -2.824671 16.880018 4.539633 -2.386750 -13.654943 -17.956018 -5.023921 
-26.823292 50.423393 -19.435101 3.769890 -0.789304 19.254503 0.000000 0.000000 0.000000 -4.933181 1.430231 1.702775 10.452753 0.927877 -1.086493 -3.646827 -2.719925 -0.816124 -5.267169 -15.452103 -1.135697 -67.062080 -24.020132 41.327454 -16.186583 -3.553037 -0.219178 11.963675 -2.671580 2.333348 -10.534312 10.123064 0.680465 67.884521 -4.837280 52.947174 4.777558 7.270514 0.019621 5.853809 3.571765 -5.289262 4.256311 1.678830 -4.440250 -0.048063 -4.725887 -4.976588 -9.355263 14.125409 5.767952 -3.063311 -3.804118 -2.839777 17.111614 4.590538 -2.419743 -13.750728 -18.021257 -4.956839 
-26.795311 50.416222 -19.419563 3.769872 -0.769815 19.363214 0.000000 0.000000 0.000000 -4.903834 1.410834 1.656347 10.404064 0.976078 -1.078629 -3.716165 -2.805086 -0.803922 -5.339596 -15.512582 -1.120144 -66.984184 -24.411596 41.208790 -17.053654 -3.349828 -0.197323 12.286938 -2.726436 2.090039 -10.600239 10.016655 0.672924 68.087997 -5.063125 53.142567 4.160831 7.611387 0.055145 6.429694 3.382091 -4.796483 4.328808 1.667384 -4.484888 -0.166733 -4.747433 -4.966122 -9.311021 14.050190 5.801735 -3.153578 -3.866059 -2.865203 17.361572 4.608951 -2.446459 -13.826746 -18.072893 -4.854073 
-26.768110 50.408550 -19.404491 3.779621 -0.750318 19.452265 0.000000 0.000000 0.000000 -4.874447 1.371975 1.611557 10.355328 1.016148 -1.062947 -3.795002 -2.861476 -0.777775 -5.392043 -15.577911 -1.161376 -66.903755 -24.753387 41.136776 -18.056650 -2.977505 -0.189559 12.511539 -2.704241 1.744998 -10.646647 9.920099 0.663574 68.286385 -5.304138 53.331970 3.622001 7.872972 0.076138 6.917565 3.222079 -4.367486 4.397763 1.638161 -4.501751 -0.243972 -4.767684 -5.009150 -9.327528 13.993470 5.820632 -3.249451 -3.941790 -2.841857 17.627607 4.645563 -2.487550 -13.907454 -18.136971 -4.785299 
